# xmcd CD database file generated by Grip 3.0.5
# 
# Track frame offsets:
#       150
#       12021
#       23825
#       37411
#       49879
#       62157
#       76659
#       89598
#       104846
#       116957
#       131518
#       144269
#       156941
#       170230
#       182216
#       195304
#       207918
# 
# Disc length: 2910 seconds
# 
# Revision: 1
# Processed by: cddbd v1.4PL0 Copyright (c) Steve Scherf et al.
# Submitted via: Grip 3.0.5
# 
DISCID=f60b5c11
DTITLE=Ray Charles - The Birth of Soul (1952-1954)  (Disk 1)
DYEAR=1991
DGENRE=Blues
TTITLE0=The Sun's Gonna Shine Again
TTITLE1=Roll With My Baby
TTITLE2=The Midnight Hour
TTITLE3=Jumpin' In The Morning
TTITLE4=It Should Have Been Me
TTITLE5=Losing Hand
TTITLE6=Heartbreaker
TTITLE7=Sinner's Prayer
TTITLE8=Mess Around
TTITLE9=Funny But I Still Love You
TTITLE10=Feelin' Sad
TTITLE11=I Wonder Who
TTITLE12=Don't You Know
TTITLE13=Nobody Cares
TTITLE14=Ray's Blues
TTITLE15=Mr. Charles Blues
TTITLE16=Blackjack
EXTD=
EXTT0=
EXTT1=
EXTT2=
EXTT3=
EXTT4=
EXTT5=
EXTT6=
EXTT7=
EXTT8=
EXTT9=
EXTT10=
EXTT11=
EXTT12=
EXTT13=
EXTT14=
EXTT15=
EXTT16=
PLAYORDER=
